<?xml version="1.0" standalone="no"?>
<!DOCTYPE svg PUBLIC "-//W3C//DTD SVG 20010904//EN"
 "http://www.w3.org/TR/2001/REC-SVG-20010904/DTD/svg10.dtd">
<svg version="1.0" xmlns="http://www.w3.org/2000/svg"
 width="139.000000pt" height="139.000000pt" viewBox="0 0 139.000000 139.000000"
 preserveAspectRatio="xMidYMid meet">
<metadata>
Created by potrace 1.14, written by Peter Selinger 2001-2017
</metadata>
<g transform="translate(0.000000,139.000000) scale(0.100000,-0.100000)"
fill="#000000" stroke="none">
<path d="M590 1109 c0 -5 -7 -9 -16 -9 -19 0 -84 -68 -84 -87 0 -7 -4 -13 -8
-13 -5 0 -8 -48 -8 -107 1 -104 0 -108 -27 -136 -28 -28 -62 -96 -49 -98 4 -1
21 -2 37 -3 46 -4 47 -5 33 -28 -7 -13 -11 -27 -10 -32 2 -4 -4 -19 -13 -32
-8 -13 -13 -24 -9 -24 4 0 1 -7 -6 -16 -23 -27 -20 -61 8 -91 21 -23 34 -29
60 -26 26 2 32 -1 32 -17 0 -11 5 -20 10 -20 6 0 10 -13 10 -30 0 -16 -4 -30
-10 -30 -5 0 -10 -9 -10 -19 0 -11 -4 -23 -10 -26 -15 -9 -12 -34 8 -54 24
-25 86 -21 115 7 20 21 33 92 16 92 -3 0 -9 9 -12 20 -3 12 0 20 8 20 8 0 12
11 11 28 -1 22 2 28 19 28 15 0 21 -6 20 -21 -1 -11 5 -30 13 -42 12 -20 12
-23 -1 -29 -23 -8 -16 -65 11 -94 15 -16 33 -24 62 -24 45 -2 69 16 66 49 -3
25 -27 75 -36 75 -4 0 -5 11 -2 25 2 14 8 25 13 25 5 0 9 9 9 20 0 16 6 19 33
17 40 -2 82 36 81 73 -1 30 -19 76 -33 84 -5 4 -8 15 -6 26 2 10 -3 24 -10 30
-8 6 -11 18 -8 26 3 8 1 14 -5 14 -5 0 -15 14 -22 30 -10 24 -10 33 0 45 7 8
10 21 7 29 -3 7 0 19 6 25 14 14 19 211 6 211 -5 0 -9 6 -9 13 0 18 -67 87
-85 87 -8 0 -15 4 -15 10 0 5 -41 9 -95 8 -52 0 -95 -4 -95 -9z m-40 -579 c0
-5 -4 -10 -10 -10 -5 0 -10 5 -10 10 0 6 5 10 10 10 6 0 10 -4 10 -10z m290 6
c0 -3 -4 -8 -10 -11 -5 -3 -10 -1 -10 4 0 6 5 11 10 11 6 0 10 -2 10 -4z"/>
</g>
</svg>
